
<svg width="126px" height="107px" viewBox="35 44 126 107" version="1.1" xmlns="http://www.w3.org/2000/svg" xmlns:xlink="http://www.w3.org/1999/xlink">
    <!-- Generator: Sketch 41 (35326) - http://www.bohemiancoding.com/sketch -->
    <desc>Created with Sketch.</desc>
    <defs>
        <radialGradient cx="50%" cy="100%" fx="50%" fy="100%" r="124.564219%" id="radialGradient-1">
            <stop stop-color="#5A6773" offset="0%"></stop>
            <stop stop-color="#5A6773" stop-opacity="0.5" offset="100%"></stop>
        </radialGradient>
        <radialGradient cx="50%" cy="143.797278%" fx="50%" fy="143.797278%" r="254.419239%" id="radialGradient-2">
            <stop stop-color="#5A6773" offset="0%"></stop>
            <stop stop-color="#5A6773" stop-opacity="0.5" offset="100%"></stop>
        </radialGradient>
        <radialGradient cx="50%" cy="100%" fx="50%" fy="100%" r="234.972485%" id="radialGradient-3">
            <stop stop-color="#5A6773" offset="0%"></stop>
            <stop stop-color="#5A6773" stop-opacity="0.5" offset="100%"></stop>
        </radialGradient>
    </defs>
    <g id="flower" stroke="none" stroke-width="1" fill="none" fill-rule="evenodd" transform="translate(35.200000, 44.800000)">
        <g id="Group">
            <path d="M71.2240209,86.5810385 C70.6181611,87.3522723 70.2529583,87.7517656 70.2529583,87.7517656 L66.6699294,87.7517656 C66.6727675,88.1064186 66.669309,88.3474893 66.6524578,88.3474893 L64.5049404,89.9846264 C64.1105673,89.9846264 61.4718173,90.2433999 61.1664962,89.9846264 C60.9375053,89.7905462 60.9276872,90.7648111 55.0120908,82.8980962 C51.5390633,78.2660502 48.6512346,73.4787401 46.4249349,68.652614 C43.6261581,62.5973138 41.8705618,56.4773201 41.2217544,50.4608358 C40.5602254,44.4443515 40.9545985,38.078523 42.3794303,31.5444917 C43.5116627,26.343144 45.2927024,21.0253483 47.6843844,15.7334298 C51.7553324,6.72811144 56.1188798,0.970400689 56.2969838,0.737504523 C56.5768615,0.362282924 57.0093997,0.116448083 57.4673813,0.0646933792 C57.925363,0.0129386758 58.3960664,0.15526411 58.7522743,0.452853655 C58.9812651,0.646933792 64.477045,5.29191842 70.3926413,13.1586333 C73.8656688,17.7906793 76.7534976,22.5779894 78.9797973,27.4041154 C81.778574,33.4594157 83.5341703,39.5794094 84.1829777,45.5958937 C84.8445067,51.612378 84.4501336,57.9782065 83.0253018,64.5122378 C81.8930694,69.7135855 80.1120297,75.0313812 77.7203477,80.3232997 C73.6493997,89.3286181 72.3119166,86.480398 72.1338126,86.7132941 C72.0638593,86.8070779 71.7150585,86.7374467 71.2240209,86.5810385 Z" id="Combined-Shape" fill="url(#radialGradient-1)"></path>
            <path d="M60.0941512,91.2787706 C60.6107788,91.3054095 61.2317186,91.3211741 61.9801835,91.3211741 L61.9801835,91.3211741 C65.1606116,91.3211741 66.0256881,91.0365233 66.4200612,90.8424431 C71.6995719,89.9237971 76.7119266,88.4617268 81.3171865,86.4821094 C83.5508757,85.5223247 85.6667255,84.4516797 87.6592225,83.2737427 C91.4577943,81.1149306 95.2368125,78.3490944 98.5805505,74.8114238 C106.455291,66.4659778 110.271804,55.5457354 112.078287,47.860162 C114.024709,39.5794094 114.139205,33.3041516 114.139205,33.0453781 C114.139205,32.5666471 113.961101,32.1137935 113.630336,31.7773879 C113.299572,31.4409823 112.854312,31.2469022 112.383609,31.2598408 C112.141896,31.2598408 106.200856,31.3762889 98.3515596,33.4464771 C94.3672742,34.4949576 89.4676655,36.1834551 84.5527478,38.8687701 C79.7260887,41.4121533 75.5322795,44.5462585 72.0812232,48.1965675 C67.9593884,52.5569013 64.5881346,57.9652678 61.9929052,64.3310963 C59.3976758,57.9652678 56.0137003,52.5439626 51.9045872,48.1965675 C44.0044037,39.8381829 33.6743731,35.7883774 26.3975535,33.8734534 C18.5609786,31.8032652 12.6199388,31.6868172 12.3655046,31.6868172 C11.8948012,31.6868172 11.4495413,31.8679586 11.1187768,32.2043642 C10.7880122,32.5407698 10.6099083,32.9936234 10.6099083,33.4723544 C10.62263,33.7311279 10.7244037,40.0063857 12.6708257,48.2871383 C13.8157798,53.1650191 15.3678287,57.719433 17.2760856,61.8468706 C19.6804893,67.0352796 22.6700917,71.5379388 26.1685627,75.2384001 C30.5575535,79.8833847 36.1042202,83.661478 42.6686239,86.4821094 C47.2866055,88.4617268 52.2862385,89.9237971 57.5657492,90.8424431 C57.6709388,90.8997558 57.8216134,90.9649666 58.063638,91.0284129 C58.3456411,91.2199857 58.6737263,91.3211741 59.0160245,91.3211741 L59.0160245,91.3211741 L59.0414679,91.3211741 C59.0978901,91.3211741 59.4648573,91.3148291 60.0941512,91.2787706 Z" id="Combined-Shape" fill="url(#radialGradient-2)"></path>
            <path d="M59.5010917,104.018751 C60.1399905,104.045372 60.924338,104.061457 61.8911315,104.061457 C65.7712538,104.061457 66.7253823,103.80237 67.1070336,103.642932 C73.4806116,102.825812 79.5361468,101.510448 85.1082569,99.7466651 C86.899764,99.1772174 88.6284683,98.5637007 90.2924411,97.9071608 C90.4263973,97.856285 90.5599477,97.8051276 90.6930887,97.7536897 C96.5959633,95.4816977 101.722813,92.6616375 105.9337,89.3632631 C110.131865,86.0648888 113.744832,82.0490433 116.645382,77.4253403 C118.948012,73.7383357 120.830826,69.6726658 122.204771,65.3279794 C124.558287,57.9240757 124.685505,52.3337796 124.685505,52.0946225 C124.685505,51.7259221 124.507401,51.3771514 124.176636,51.1180646 C123.845872,50.8589778 123.400612,50.7095046 122.929908,50.7194695 C122.637309,50.7194695 115.487706,50.8191182 106.035474,52.6626205 C100.495751,53.7350204 95.3097197,55.2032005 90.6284274,56.9981443 C90.2912621,57.1224361 89.9565898,57.2483988 89.6244648,57.3760074 C83.7215902,59.6479994 78.5947401,62.4680597 74.3838532,65.766434 C69.2442813,69.7822795 65.0588379,74.8245073 61.8911315,80.7835039 C58.7234251,74.8344722 54.5379817,69.7922444 49.3984098,65.766434 C45.1875229,62.4780245 40.0606728,59.6479994 34.1577982,57.3760074 C29.4634862,55.5723647 24.2603058,54.1075277 18.7009174,53.0213561 C9.24868502,51.1778538 2.11180428,51.078205 1.80648318,51.078205 C1.33577982,51.078205 0.890519878,51.2177133 0.559755352,51.4768001 C0.228990826,51.7358869 0.0381651376,52.0846576 0.0508868502,52.4533581 C0.0636085627,52.6925151 0.190825688,58.2927761 2.54434251,65.6966799 C3.91828746,70.0413663 5.80110092,74.1170011 8.10373089,77.8040056 C11.0042813,82.4277086 14.604526,86.4435541 18.8154128,89.7419285 C24.0949235,93.8773525 30.7738226,97.2355161 38.6740061,99.7466651 C44.2461162,101.510448 50.3016514,102.825812 56.6752294,103.642932 C56.8062553,103.695904 56.9976641,103.759875 57.3371668,103.821689 C57.6250836,103.978487 57.963141,104.061457 58.3163303,104.061457 L58.3163303,104.061457 C58.3163303,104.061457 58.329052,104.061457 58.3417737,104.051492 C58.406745,104.051492 58.8098051,104.046579 59.5010917,104.018751 Z" id="Combined-Shape" fill="url(#radialGradient-3)"></path>
        </g>
    </g>
</svg>