<?xml version="1.0" standalone="no"?><!DOCTYPE svg PUBLIC "-//W3C//DTD SVG 1.1//EN" "http://www.w3.org/Graphics/SVG/1.1/DTD/svg11.dtd"><svg t="1494146969811" class="icon" style="" viewBox="0 0 1024 1024" version="1.1" xmlns="http://www.w3.org/2000/svg" p-id="3362" xmlns:xlink="http://www.w3.org/1999/xlink" width="200" height="200"><defs><style type="text/css"></style></defs><path d="M512 145.656381c-197.47763 0-358.157169 160.679539-358.157169 358.157169 0 197.503213 160.653957 358.157169 358.157169 358.157169s358.157169-160.653957 358.157169-358.157169C870.157169 306.33592 709.50219 145.656381 512 145.656381zM684.83437 444.73706l-205.751061 207.986985c-0.051165 0.051165-0.154519 0.076748-0.205685 0.154519-0.076748 0.051165-0.076748 0.154519-0.154519 0.205685-1.644453 1.593288-3.674693 2.569522-5.575995 3.64911-0.950651 0.539282-1.721201 1.362021-2.724041 1.747807-3.083222 1.233084-6.346545 1.87572-9.610892 1.87572-3.288906 0-6.604418-0.642636-9.713222-1.926886-1.027399-0.436952-1.850138-1.310855-2.826372-1.850138-1.901303-1.079588-3.880377-2.030239-5.52483-3.64911-0.051165-0.051165-0.076748-0.154519-0.128937-0.205685-0.051165-0.076748-0.154519-0.076748-0.205685-0.154519L341.220429 548.577057c-9.893324-10.175757-9.662057-26.441209 0.5137-36.334533 10.175757-9.867742 26.415626-9.68764 36.334533 0.5137l82.922594 85.209684L648.319735 408.582629c9.970072-10.099009 26.26213-10.201339 36.334533-0.205685C694.701089 418.372599 694.804443 434.638051 684.83437 444.73706z" p-id="3363" fill="#1296db"></path></svg>