<?xml version="1.0" standalone="no"?><!DOCTYPE svg PUBLIC "-//W3C//DTD SVG 1.1//EN" "http://www.w3.org/Graphics/SVG/1.1/DTD/svg11.dtd"><svg class="icon" width="200px" height="200.00px" viewBox="0 0 1024 1024" version="1.1" xmlns="http://www.w3.org/2000/svg"><path d="M94.814815 1017.046914c-3.160494 0-6.953086-0.632099-10.11358-1.896297-13.274074-5.688889-18.962963-20.859259-13.274075-34.133333L486.083951 21.491358c5.688889-13.274074 20.859259-18.962963 34.133333-13.274074 13.274074 5.688889 18.962963 20.859259 13.274074 34.133333L118.834568 1001.244444c-4.424691 10.11358-13.906173 15.802469-24.019753 15.80247z"/><path d="M926.024691 1017.046914c-10.11358 0-19.595062-5.688889-24.019753-15.80247L486.083951 41.718519c-5.688889-12.641975 0.632099-28.444444 13.906172-34.133334 13.274074-5.688889 28.444444 0.632099 34.133334 13.274074l415.288889 959.525926c5.688889 13.274074-0.632099 28.444444-13.274074 34.133334-3.160494 1.896296-6.953086 2.528395-10.113581 2.528395z"/><path d="M797.076543 719.960494H256.632099c-14.538272 0-25.916049-11.377778-25.91605-25.91605s11.377778-25.916049 25.91605-25.916049h541.076543c14.538272 0 25.916049 11.377778 25.916049 25.916049s-12.009877 25.916049-26.548148 25.91605z"/></svg>