<?xml version="1.0" standalone="no"?><!DOCTYPE svg PUBLIC "-//W3C//DTD SVG 1.1//EN" "http://www.w3.org/Graphics/SVG/1.1/DTD/svg11.dtd"><svg t="1493720479584" class="icon" style="" viewBox="0 0 1024 1024" version="1.1" xmlns="http://www.w3.org/2000/svg" p-id="2379" xmlns:xlink="http://www.w3.org/1999/xlink" width="200" height="200"><defs><style type="text/css"></style></defs><path d="M951.466667 780.8l-128 0 0-128c0-12.8-8.533333-21.333333-21.333333-21.333333s-21.333333 8.533333-21.333333 21.333333l0 128-128 0c-12.8 0-21.333333 8.533333-21.333333 21.333333s8.533333 21.333333 21.333333 21.333333l128 0 0 128c0 12.8 8.533333 21.333333 21.333333 21.333333s21.333333-8.533333 21.333333-21.333333l0-128 128 0c12.8 0 21.333333-8.533333 21.333333-21.333333S964.266667 780.8 951.466667 780.8z" p-id="2380"></path><path d="M695.466667 932.266667l-320 0 0-810.666667 213.333333 0 0 213.333333 0 377.6c0 12.8 8.533333 21.333333 21.333333 21.333333s21.333333-8.533333 21.333333-21.333333L631.466667 334.933333l213.333333 0 0 234.666667 42.666667 0 0-234.666667c0-23.466667-19.2-42.666667-42.666667-42.666667l-213.333333 0 0-170.666667c0-23.466667-19.2-42.666667-42.666667-42.666667l-213.333333 0c-23.466667 0-42.666667 19.2-42.666667 42.666667l0 277.333333c0 0 0 0 0 0l-213.333333 0c-23.466667 0-42.666667 19.2-42.666667 42.666667l0 490.666667c0 23.466667 19.2 42.666667 42.666667 42.666667l213.333333 0c8.533333 0 14.933333-2.133333 21.333333-6.4 6.4 4.266667 12.8 6.4 21.333333 6.4l320 0c12.8 0 21.333333-8.533333 21.333333-21.333333S708.266667 932.266667 695.466667 932.266667zM332.8 932.266667l-213.333333 0 0-490.666667 213.333333 0L332.8 932.266667zM332.8 953.6l0-21.333333c0 0 0 0 0 0L332.8 953.6z" p-id="2381"></path></svg>