<?xml version="1.0" standalone="no"?><!DOCTYPE svg PUBLIC "-//W3C//DTD SVG 1.1//EN" "http://www.w3.org/Graphics/SVG/1.1/DTD/svg11.dtd"><svg t="1493978463607" class="icon" style="" viewBox="0 0 1024 1024" version="1.1" xmlns="http://www.w3.org/2000/svg" p-id="5002" xmlns:xlink="http://www.w3.org/1999/xlink" width="200" height="200"><defs><style type="text/css"></style></defs><path d="M472.546941 977.702558h-91.430362c-37.813211 0-68.571748-30.759561-68.571748-68.572772v-777.149892c0-37.813211 30.759561-68.571748 68.571748-68.571749h91.430362c37.812187 0 68.571748 30.759561 68.571749 68.571749v777.149892c-0.001023 37.813211-30.759561 68.572772-68.571749 68.572772z m-91.430362-868.579232c-12.611226 0-22.856567 10.245342-22.856567 22.856568v777.149892c0 12.611226 10.245342 22.857591 22.856567 22.857591h91.430362c12.611226 0 22.856567-10.246365 22.856567-22.857591v-777.149892c0-12.611226-10.245342-22.856567-22.856567-22.856568h-91.430362zM198.256878 977.702558h-91.429339c-37.813211 0-68.571748-30.759561-68.571748-68.572772V177.695075c0-37.813211 30.759561-68.571748 68.571748-68.571749h91.429339c37.814234 0 68.573795 30.758538 68.573795 68.571749v731.434711c0 37.813211-30.759561 68.572772-68.573795 68.572772z m-91.428316-822.865074c-12.611226 0-22.856567 10.245342-22.856567 22.857591v731.434711c0 12.611226 10.245342 22.857591 22.856567 22.857591h91.429339c12.612249 0 22.857591-10.246365 22.857591-22.857591V177.695075c0-12.612249-10.245342-22.857591-22.857591-22.857591h-91.429339z" fill="#060001" p-id="5003"></path><path d="M846.43335 964.889741c-30.937616 0-58.170864-20.892843-66.184375-50.826596L590.940398 207.561289c-9.79918-36.518728 11.963473-74.196863 48.481178-83.996042l88.326675-23.660886a68.471464 68.471464 0 0 1 17.790178-2.343371c30.937616 0 58.170864 20.892843 66.184375 50.826595l189.310623 706.501856c9.798157 36.518728-11.964496 74.197886-48.483224 83.996043l-88.326675 23.660886a68.422346 68.422346 0 0 1-17.790178 2.343371z m-100.894921-821.614594c-1.985214 0-3.994987 0.245593-5.958712 0.781806L651.253042 167.717839c-12.165064 3.25923-19.419282 15.826454-16.161074 28.013007l189.310623 706.501856c3.191692 11.920494 15.891945 19.508309 27.991518 16.161075l88.326674-23.660886c12.166087-3.25923 19.420305-15.82543 16.161075-28.013007l-189.311647-706.501856c-2.679016-9.978259-11.740392-16.942881-22.031782-16.942881z" fill="#070102" p-id="5004"></path><path d="M635.404076 631.985722h388.574946v342.859765H635.404076V631.985722z" fill="#FFFFFF" p-id="5005"></path><path d="M989.693148 814.842353H875.406219V700.55747h-45.714158v114.284883H715.405131v45.716204h114.28693v114.28693h45.714158V860.558557h114.286929z" fill="#070102" p-id="5006"></path></svg>