<?xml version="1.0" standalone="no"?><!DOCTYPE svg PUBLIC "-//W3C//DTD SVG 1.1//EN" "http://www.w3.org/Graphics/SVG/1.1/DTD/svg11.dtd"><svg class="icon" width="200px" height="200.00px" viewBox="0 0 1024 1024" version="1.1" xmlns="http://www.w3.org/2000/svg"><path d="M511 956.5c-247.4 0-448.7-199.7-448.7-445.2C62.3 265.7 263.6 66 511 66c247.4 0 448.7 199.7 448.7 445.2 0 245.6-201.3 445.3-448.7 445.3z m0-850.5c-225.4 0-408.7 181.8-408.7 405.2 0 223.4 183.3 405.2 408.7 405.2s408.7-181.8 408.7-405.2C919.7 287.8 736.3 106 511 106z" /><path d="M510.7 851.1c-188 0-340.9-152-340.9-338.8s152.9-338.8 340.9-338.8 341 152 341 338.8-153 338.8-341 338.8z m0-637.6c-165.9 0-300.9 134-300.9 298.8s135 298.8 300.9 298.8c165.9 0 300.9-134 300.9-298.8S676.7 213.5 510.7 213.5z" /><path d="M586.1 279.8h-51v45.3h-60.9v-45.3h-50.8v45.3h-58.2v44.2h14.5c15.5 0 18.7 5.7 18.7 18.5 0 0-0.2 225.9 0 244.7 0.1 12.2-10.2 12.2-10.2 12.2h-25.7v43.9h61.1v47h50.7v-47h62.5v47h49.4v-47s104 0 104-99.5c0-12.3 0-72-71.5-89 18.7-7.7 59.6-24.7 59.6-82.3 0-83.7-92.1-86.6-92.1-86.6v-51.4z m-36.9 89.5c23.2 0 78.9 0 78.9 57.9 0 65.9-58.5 57.5-84.5 57.5H443.1V369.3h106.1z m2.1 154.3c29.4 0 87.3 0 87.3 61.8 0 63.7-66.7 63.7-87.3 63.7l-108.1-1.9V523.6h108.1z" /></svg>