<?xml version="1.0" standalone="no"?><!DOCTYPE svg PUBLIC "-//W3C//DTD SVG 1.1//EN" "http://www.w3.org/Graphics/SVG/1.1/DTD/svg11.dtd"><svg class="icon" width="200px" height="199.80px" viewBox="0 0 1025 1024" version="1.1" xmlns="http://www.w3.org/2000/svg"><path d="M892.66 600.983c9.521-9.671 9.4-25.23-0.27-34.751-9.671-9.523-25.23-9.401-34.751 0.269l-320.723 325.741v-798.397c0-13.572-11.002-24.573-24.573-24.573-13.572 0-24.573 11.002-24.573 24.573v794.632l-315.807-320.552c-9.523-9.668-25.084-9.784-34.751-0.259-9.668 9.524-9.784 25.083-0.259 34.751l334.742 339.769c11.059 11.331 25.865 17.689 41.703 17.906 0.277 0.004 0.555 0.005 0.832 0.005 15.561 0 30.237-5.958 41.412-16.832 0.125-0.122 0.25-0.246 0.373-0.371l336.645-341.912z" /></svg>