<?xml version="1.0" standalone="no"?><!DOCTYPE svg PUBLIC "-//W3C//DTD SVG 1.1//EN" "http://www.w3.org/Graphics/SVG/1.1/DTD/svg11.dtd"><svg t="1493978508995" class="icon" style="" viewBox="0 0 1024 1024" version="1.1" xmlns="http://www.w3.org/2000/svg" p-id="6767" xmlns:xlink="http://www.w3.org/1999/xlink" width="200" height="200"><defs><style type="text/css"></style></defs><path d="M889.728 718.144l0 171.648L134.336 889.792l0-171.648L65.6 718.144l0 171.648c0 0 5.696 68.608 68.672 68.608l755.456 0c62.912 0 68.608-68.608 68.608-68.608l0-171.648L889.728 718.144zM855.296 443.328l-171.648 0L683.648 134.336c0-37.888-30.72-68.672-68.672-68.672L408.96 65.664c-37.888 0-68.672 30.784-68.672 68.672l0 308.992L168.576 443.328 512 786.688 855.296 443.328z" p-id="6768"></path></svg>