<?xml version="1.0" standalone="no"?><!DOCTYPE svg PUBLIC "-//W3C//DTD SVG 1.1//EN" "http://www.w3.org/Graphics/SVG/1.1/DTD/svg11.dtd"><svg t="1494917155001" class="icon" style="" viewBox="0 0 1024 1024" version="1.1" xmlns="http://www.w3.org/2000/svg" p-id="1182" xmlns:xlink="http://www.w3.org/1999/xlink" width="200" height="200"><defs><style type="text/css"></style></defs><path d="M512 64C264.96 64 64 264.96 64 512c0 246.976 200.96 448 448 448 246.976 0 448-201.024 448-448C960 264.96 758.976 64 512 64zM512 896c-212.032 0-384-171.968-384-384s171.968-384 384-384 384 171.968 384 384S724.032 896 512 896z" p-id="1183" fill="#d81e06"></path><path d="M670.4 308.352 512 466.688 353.6 308.352 308.352 353.6 466.752 512 308.352 670.4 353.6 715.648 512 557.248 670.4 715.648 715.648 670.4 557.248 512 715.648 353.6Z" p-id="1184" fill="#d81e06"></path></svg>