<?xml version="1.0" standalone="no"?><!DOCTYPE svg PUBLIC "-//W3C//DTD SVG 1.1//EN" "http://www.w3.org/Graphics/SVG/1.1/DTD/svg11.dtd"><svg t="1493951709794" class="icon" style="" viewBox="0 0 1024 1024" version="1.1" xmlns="http://www.w3.org/2000/svg" p-id="5821" xmlns:xlink="http://www.w3.org/1999/xlink" width="200" height="200"><defs><style type="text/css"></style></defs><path d="M677.888 717.1072c226.2528-39.4496 344.2176-310.656 344.2176-553.728h-185.6512c10.9824-78.3872 17.8432-141.4656 17.8432-163.3792H172.6208c3.7888 41.9072 8.9344 99.4816 15.9744 163.3792H1.8688c0 246.3744 119.5776 517.1712 350.6176 554.368 36.6592 47.0528 63.8976 66.688 95.0016 77.44v54.5024h-131.9168L216.6016 1024h593.7152l-98.944-174.3104h-131.9424v-54.5024c28.5184-7.2448 65.28-37.888 98.4576-78.08z m66.4576-107.0592c28.2368-65.7664 60.3136-236.032 82.5344-381.312h68.736c0 204.9024-89.4208 357.8112-154.8032 389.0432 1.152-2.5856 2.432-5.1712 3.5328-7.7312zM128.64 228.7616h67.6096c18.176 146.0736 46.1568 307.6352 89.4208 389.248-66.2784-30.6176-157.0304-184.3712-157.0304-389.248zM545.8176 542.464h-73.1136V268.2112c-9.0112 7.808-21.2992 14.8224-36.8896 21.0432s-29.9264 10.0864-42.9824 11.5968V238.4896c41.088-12.0064 76.6464-29.3888 106.6496-52.1984h46.3616V542.464z" fill="#E68422" p-id="5822"></path></svg>