<?xml version="1.0" standalone="no"?><!DOCTYPE svg PUBLIC "-//W3C//DTD SVG 1.1//EN" "http://www.w3.org/Graphics/SVG/1.1/DTD/svg11.dtd"><svg class="icon" width="200px" height="200.00px" viewBox="0 0 1024 1024" version="1.1" xmlns="http://www.w3.org/2000/svg"><path d="M947.2 819.2l-170.496-379.904c-4.096-12.8-16.896-21.504-29.696-21.504s-25.6 8.704-29.696 21.504L546.304 819.2c-8.704 16.896-10.24 33.28 6.656 41.984 16.896 8.704 28.16 5.12 36.864-11.776l47.616-104.96h221.696l47.616 109.056c4.096 12.8 16.896 15.872 32.256 11.776 27.648-10.24 16.896-29.184 8.192-46.08z m-200.704-336.896l88.576 216.064h-178.176l89.6-216.064zM431.104 136.704c-4.096-12.8-24.064-21.504-34.304-21.504-12.8 0-25.6 8.704-34.304 21.504L72.704 815.104c-8.704 16.896-10.24 33.28 6.656 41.984 16.896 8.704 28.16 5.12 36.864-11.776l89.6-204.8h366.08l4.096-8.704 24.064-52.224v-8.704l-168.96-434.176z m-35.328 40.96l156.16 409.6h-322.56l166.4-409.6z"  /></svg>