<?xml version="1.0" standalone="no"?><!DOCTYPE svg PUBLIC "-//W3C//DTD SVG 1.1//EN" "http://www.w3.org/Graphics/SVG/1.1/DTD/svg11.dtd"><svg class="icon" width="200px" height="200.00px" viewBox="0 0 1024 1024" version="1.1" xmlns="http://www.w3.org/2000/svg"><path d="M724.309333 520.021333C724.821333 517.333333 725.333333 514.730667 725.333333 512c0-2.730667-0.512-5.333333-1.024-8.021333-0.512-2.645333-1.024-5.205333-2.048-7.765333-1.066667-2.645333-2.645333-4.992-4.224-7.424-1.066667-1.578667-1.493333-3.413333-2.816-4.906667-0.64-0.768-1.578667-1.024-2.261333-1.749333-0.682667-0.682667-0.981333-1.621333-1.749333-2.261333l-341.674667-298.666667c-17.749333-15.530667-44.714667-13.653333-60.288 4.010667C293.717333 202.965333 295.509333 229.930667 313.258667 245.418667L618.197333 512l-304.981333 266.581333c-17.749333 15.530667-19.541333 42.453333-4.010667 60.202667C317.696 848.384 329.514667 853.333333 341.418667 853.333333c9.984 0 20.010667-3.498667 28.117333-10.581333l341.674667-298.666667c0.810667-0.682667 1.109333-1.664 1.834667-2.389333 0.64-0.64 1.536-0.896 2.176-1.578667 1.28-1.493333 1.749333-3.328 2.816-4.906667 1.621333-2.432 3.157333-4.736 4.224-7.424C723.285333 525.226667 723.797333 522.709333 724.309333 520.021333z" /></svg>