<?xml version="1.0" standalone="no"?><!DOCTYPE svg PUBLIC "-//W3C//DTD SVG 1.1//EN" "http://www.w3.org/Graphics/SVG/1.1/DTD/svg11.dtd"><svg class="icon" width="200px" height="199.80px" viewBox="0 0 1025 1024" version="1.1" xmlns="http://www.w3.org/2000/svg"><path d="M511.362501 804.35276a289.772084 289.772084 0 0 1-206.249542-85.431628A289.772084 289.772084 0 0 1 219.681331 512.637499 289.772084 289.772084 0 0 1 305.112959 306.387956 289.772084 289.772084 0 0 1 511.362501 220.956328a289.772084 289.772084 0 0 1 206.249543 85.431628A289.772084 289.772084 0 0 1 803.111854 512.637499a289.772084 289.772084 0 0 1-85.431629 206.249542A289.772084 289.772084 0 0 1 511.362501 804.386851z m0-535.771538c-134.55652 0-244.022186 109.499757-244.022185 244.090367 0 134.55652 109.465666 244.022186 244.056276 244.022186 134.55652 0 244.056277-109.465666 244.056277-244.056276 0-134.55652-109.499757-244.056277-244.090368-244.056277z m0-126.170174a23.829493 23.829493 0 0 1-23.795401-23.863584V25.138581a23.829493 23.829493 0 1 1 47.658985 0V118.547464a23.829493 23.829493 0 0 1-23.863584 23.829493zM511.362501 1024a23.829493 23.829493 0 0 1-23.795401-23.829493V906.727533a23.829493 23.829493 0 1 1 47.658985 0V1000.136417A23.829493 23.829493 0 0 1 511.362501 1024zM232.772211 257.808519h-0.034091a23.659038 23.659038 0 0 1-16.840872-6.95453L149.795122 184.751863a23.829493 23.829493 0 1 1 33.681744-33.681744l66.102126 66.068035a23.829493 23.829493 0 0 1-16.806781 40.670365h-0.034091z m623.38498 623.38498h-0.034091a23.693129 23.693129 0 0 1-16.840872-6.95453l-66.068035-66.102126a23.829493 23.829493 0 0 1 33.681743-33.681744l66.102126 66.068035a23.829493 23.829493 0 0 1-16.840871 40.670365zM23.829493 536.501082a23.829493 23.829493 0 0 1 0-47.658985H117.272467a23.829493 23.829493 0 0 1 0 47.624894H23.863583z m975.066017 0H905.452536a23.829493 23.829493 0 1 1 0-47.658985H998.861419a23.829493 23.829493 0 1 1 0 47.624894zM166.635994 881.193499a23.829493 23.829493 0 0 1-16.806781-40.670365l66.068035-66.102126a23.829493 23.829493 0 1 1 33.681744 33.715835l-66.102126 66.068035a23.659038 23.659038 0 0 1-16.806781 6.988621zM790.020974 257.808519a23.829493 23.829493 0 0 1-16.806781-40.670365l66.033944-66.068035a23.829493 23.829493 0 1 1 33.715835 33.681744l-66.102126 66.102126a23.659038 23.659038 0 0 1-16.806781 6.95453h-0.034091z" /></svg>