<?xml version="1.0" standalone="no"?><!DOCTYPE svg PUBLIC "-//W3C//DTD SVG 1.1//EN" "http://www.w3.org/Graphics/SVG/1.1/DTD/svg11.dtd"><svg class="icon" width="200px" height="200.00px" viewBox="0 0 1024 1024" version="1.1" xmlns="http://www.w3.org/2000/svg"><path d="M930.290223 481.477846 314.807361 481.477846c0 0-29.41903-0.804319-29.41903 27.699875 0 28.506241 29.41903 27.701922 29.41903 27.701922l615.481839 0c0 0 29.41596-0.750083 29.41596-27.701922C959.706183 482.227929 930.290223 481.477846 930.290223 481.477846L930.290223 481.477846zM314.807361 264.869506l615.481839 0c0 0 29.41596-0.754177 29.41596-27.700899 0-26.945699-29.41596-27.696806-29.41596-27.696806L314.807361 209.471802c0 0-29.41903-0.809435-29.41903 27.696806S314.807361 264.869506 314.807361 264.869506L314.807361 264.869506zM930.290223 752.624313 314.807361 752.624313c0 0-29.41903-0.801249-29.41903 27.698852 0 28.504194 29.41903 27.700899 29.41903 27.700899l615.481839 0c0 0 29.41596-0.7552 29.41596-27.700899C959.706183 753.371326 930.290223 752.624313 930.290223 752.624313L930.290223 752.624313zM145.313062 481.477846l-53.462632 0c0 0-29.41596-0.804319-29.41596 27.699875 0 28.506241 29.41596 27.701922 29.41596 27.701922l53.462632 0c0 0 29.411867-0.750083 29.411867-27.701922C174.724928 482.227929 145.313062 481.477846 145.313062 481.477846L145.313062 481.477846zM145.313062 209.471802l-53.462632 0c0 0-29.41596-0.809435-29.41596 27.696806s29.41596 27.700899 29.41596 27.700899l53.462632 0c0 0 29.411867-0.754177 29.411867-27.700899C174.724928 210.222909 145.313062 209.471802 145.313062 209.471802L145.313062 209.471802zM145.313062 752.624313l-53.462632 0c0 0-29.41596-0.801249-29.41596 27.698852 0 28.504194 29.41596 27.700899 29.41596 27.700899l53.462632 0c0 0 29.411867-0.7552 29.411867-27.700899C174.724928 753.371326 145.313062 752.624313 145.313062 752.624313L145.313062 752.624313zM145.313062 752.624313" /></svg>