<?xml version="1.0" standalone="no"?><!DOCTYPE svg PUBLIC "-//W3C//DTD SVG 1.1//EN" "http://www.w3.org/Graphics/SVG/1.1/DTD/svg11.dtd"><svg class="icon" width="200px" height="200.00px" viewBox="0 0 1024 1024" version="1.1" xmlns="http://www.w3.org/2000/svg"><path d="M317.44 512 317.44 512c0-11.946667-8.533333-20.48-20.48-20.48L20.48 491.52C8.533333 491.52 0 500.053333 0 512l0 0c0 11.946667 8.533333 20.48 20.48 20.48l274.773333 0C307.2 532.48 317.44 523.946667 317.44 512z"  /><path d="M343.04 609.28 343.04 609.28c-5.12-10.24-18.773333-13.653333-29.013333-6.826667l-238.933333 138.24C66.56 745.813333 63.146667 757.76 68.266667 768l0 0c5.12 10.24 18.773333 13.653333 29.013333 6.826667l238.933333-138.24C344.746667 631.466667 348.16 619.52 343.04 609.28z"  /><path d="M414.72 680.96 414.72 680.96c-10.24-5.12-22.186667-1.706667-29.013333 6.826667l-138.24 238.933333c-5.12 10.24-1.706667 22.186667 6.826667 29.013333l0 0c10.24 5.12 22.186667 1.706667 29.013333-6.826667l138.24-238.933333C428.373333 699.733333 424.96 686.08 414.72 680.96z"  /><path d="M512 706.56 512 706.56c-11.946667 0-20.48 8.533333-20.48 20.48l0 274.773333c0 11.946667 8.533333 20.48 20.48 20.48l0 0c11.946667 0 20.48-8.533333 20.48-20.48L532.48 727.04C532.48 716.8 523.946667 706.56 512 706.56z"  /><path d="M638.293333 687.786667c-5.12-10.24-18.773333-13.653333-29.013333-6.826667l0 0c-10.24 5.12-13.653333 18.773333-6.826667 29.013333l138.24 238.933333c5.12 10.24 18.773333 13.653333 29.013333 6.826667l0 0c10.24-5.12 13.653333-18.773333 6.826667-29.013333L638.293333 687.786667z"  /><path d="M947.2 738.986667l-238.933333-138.24c-10.24-5.12-22.186667-1.706667-29.013333 6.826667l0 0c-5.12 10.24-1.706667 22.186667 6.826667 29.013333l238.933333 138.24c10.24 5.12 22.186667 1.706667 29.013333-6.826667l0 0C960.853333 757.76 957.44 745.813333 947.2 738.986667z"  /><path d="M1003.52 491.52 727.04 491.52c-11.946667 0-20.48 8.533333-20.48 20.48l0 0c0 11.946667 8.533333 20.48 20.48 20.48l274.773333 0c11.946667 0 20.48-8.533333 20.48-20.48l0 0C1024 500.053333 1015.466667 491.52 1003.52 491.52z"  /><path d="M680.96 414.72 680.96 414.72c5.12 10.24 18.773333 13.653333 29.013333 6.826667l238.933333-138.24c10.24-5.12 13.653333-18.773333 6.826667-29.013333l0 0c-5.12-10.24-18.773333-13.653333-29.013333-6.826667l-238.933333 138.24C679.253333 392.533333 675.84 404.48 680.96 414.72z"  /><path d="M609.28 343.04 609.28 343.04c10.24 5.12 22.186667 1.706667 29.013333-6.826667l138.24-238.933333C781.653333 87.04 778.24 75.093333 768 68.266667l0 0c-10.24-5.12-22.186667-1.706667-29.013333 6.826667l-138.24 238.933333C595.626667 324.266667 599.04 337.92 609.28 343.04z"  /><path d="M512 0 512 0c-11.946667 0-20.48 8.533333-20.48 20.48l0 274.773333c0 11.946667 8.533333 20.48 20.48 20.48l0 0c11.946667 0 20.48-8.533333 20.48-20.48L532.48 20.48C532.48 8.533333 523.946667 0 512 0z"  /><path d="M285.013333 76.8C278.186667 66.56 266.24 63.146667 256 68.266667l0 0c-10.24 5.12-13.653333 18.773333-6.826667 29.013333l138.24 238.933333c5.12 10.24 18.773333 13.653333 29.013333 6.826667l0 0c10.24-5.12 13.653333-18.773333 6.826667-29.013333L285.013333 76.8z"  /><path d="M76.8 285.013333l238.933333 138.24c10.24 5.12 22.186667 1.706667 29.013333-6.826667l0 0c5.12-10.24 1.706667-22.186667-6.826667-29.013333l-238.933333-138.24C87.04 242.346667 75.093333 245.76 68.266667 256l0 0C63.146667 266.24 66.56 278.186667 76.8 285.013333z"  /></svg>