<?xml version="1.0" standalone="no"?><!DOCTYPE svg PUBLIC "-//W3C//DTD SVG 1.1//EN" "http://www.w3.org/Graphics/SVG/1.1/DTD/svg11.dtd"><svg class="icon" width="200px" height="200.00px" viewBox="0 0 1024 1024" version="1.1" xmlns="http://www.w3.org/2000/svg"><path d="M805.376 861.12a41.28 41.28 0 0 1-41.792 40.512H261.76a41.216 41.216 0 0 1-41.792-40.512V496.704c0-22.4 18.688-40.512 41.792-40.512h501.76c23.04 0 41.792 18.176 41.792 40.512v364.416z m-501.76-566.976c0-111.808 93.568-202.496 209.088-202.496 115.456 0 209.024 90.688 209.024 202.496v121.536H303.616V294.144z m459.968 0C763.52 160 651.264 51.2 512.64 51.2s-250.88 108.736-250.88 242.944v121.536c-46.208 0-83.648 36.224-83.648 81.024v364.416c0 44.672 37.44 80.96 83.648 80.96h501.76c46.144 0 83.584-36.288 83.584-80.96V496.704c0-44.8-37.44-81.024-83.584-81.024V294.144z m-230.016 399.36v25.856a20.608 20.608 0 0 1-20.864 20.288 20.608 20.608 0 0 1-20.928-20.288v-25.856a40.128 40.128 0 0 1-20.928-34.88c0-22.4 18.752-40.512 41.856-40.512 23.04 0 41.792 18.176 41.792 40.512a40 40 0 0 1-20.928 34.88z m-20.864-115.84c-46.208 0-83.648 36.224-83.648 80.96 0 20.8 8.32 39.552 21.632 53.952-0.256 2.24-0.64 4.48-0.64 6.784 0 33.536 28.032 60.8 62.72 60.8 34.56 0 62.72-27.264 62.72-60.8 0-2.368-0.512-4.544-0.768-6.784 13.248-14.4 21.568-33.152 21.568-53.952 0-44.8-37.376-80.96-83.584-80.96z" /></svg>