<?xml version="1.0" standalone="no"?><!DOCTYPE svg PUBLIC "-//W3C//DTD SVG 1.1//EN" "http://www.w3.org/Graphics/SVG/1.1/DTD/svg11.dtd"><svg t="1494408025116" class="icon" style="" viewBox="0 0 1200 1024" version="1.1" xmlns="http://www.w3.org/2000/svg" p-id="20925" xmlns:xlink="http://www.w3.org/1999/xlink" width="234.375" height="200"><defs><style type="text/css"></style></defs><path d="M440.337897 293.359744C228.334401 293.359744 0 247.42441 0 146.679872 0 45.935334 228.334401 0 440.337897 0s440.263327 45.935334 440.263327 146.679872C880.675794 247.42441 652.415963 293.359744 440.337897 293.359744zM440.337897 67.113312C192.988057 67.113312 71.512962 124.905331 67.113312 146.903583 71.587533 168.454413 193.137198 226.171861 440.337897 226.171861c247.126129 0 368.675794-57.717448 373.150015-79.715701C809.162831 124.905331 687.687737 67.113312 440.337897 67.113312z" p-id="20926" fill="#e59b1a"></path><path d="M356.520827 909.012525C184.188756 899.31838 0 856.29129 0 764.793475l67.113312 0c3.653947 17.896883 93.138363 65.920186 293.210603 77.254879L356.520827 909.012525z" p-id="20927" fill="#e59b1a"></path><path d="M440.337897 502.007574C228.334401 502.007574 0 456.14681 0 355.402272l67.113312 0c4.39965 21.774541 125.800175 79.49199 373.224585 79.49199 247.34984 0 368.750364-57.717448 373.150015-79.715701l67.113312 0.149141C880.675794 456.14681 652.415963 502.007574 440.337897 502.007574z" p-id="20928" fill="#e59b1a"></path><path d="M358.832508 712.743373C185.307311 703.123798 0 660.171279 0 568.300612l67.113312 0C70.692689 586.346636 160.848238 634.59365 362.411885 645.704632L358.832508 712.743373z" p-id="20929" fill="#e59b1a"></path><path d="M0 146.679872l67.113312 0 0 618.113603-67.113312 0 0-618.113603Z" p-id="20930" fill="#e59b1a"></path><path d="M813.487911 146.679872l67.113312 0 0 408.79464-67.113312 0 0-408.79464Z" p-id="20931" fill="#e59b1a"></path><path d="M759.051558 815.35217c-212.078066 0-440.263327-45.935334-440.263327-146.679872 0-100.819109 228.259831-146.754442 440.263327-146.754442s440.263327 45.935334 440.263327 146.754442C1199.314885 769.416837 971.055054 815.35217 759.051558 815.35217zM759.051558 589.031168c-247.200699 0-368.675794 57.792019-373.150015 79.790271 4.474221 21.55083 125.949315 79.268278 373.150015 79.268278s368.675794-57.792019 373.150015-79.715701C1127.727352 646.897757 1006.252258 589.031168 759.051558 589.031168z" p-id="20932" fill="#e59b1a"></path><path d="M759.051558 1024c-212.078066 0-440.263327-45.860763-440.263327-146.605301l67.113312 0c4.39965 21.774541 125.874745 79.49199 373.150015 79.49199s368.750364-57.717448 373.150015-79.715701l67.113312 0.223711C1199.314885 978.139237 971.055054 1024 759.051558 1024z" p-id="20933" fill="#e59b1a"></path><path d="M318.713662 668.672298l67.113312 0 0 208.7224-67.113312 0 0-208.7224Z" p-id="20934" fill="#e59b1a"></path><path d="M1132.201573 668.672298l67.113312 0 0 208.7224-67.113312 0 0-208.7224Z" p-id="20935" fill="#e59b1a"></path></svg>