<?xml version="1.0" standalone="no"?><!DOCTYPE svg PUBLIC "-//W3C//DTD SVG 1.1//EN" "http://www.w3.org/Graphics/SVG/1.1/DTD/svg11.dtd"><svg t="1494406068303" class="icon" style="" viewBox="0 0 1024 1024" version="1.1" xmlns="http://www.w3.org/2000/svg" p-id="7447" xmlns:xlink="http://www.w3.org/1999/xlink" width="200" height="200"><defs><style type="text/css"></style></defs><path d="M519.4 511.7m-448.2 0a448.2 448.2 0 1 0 896.4 0 448.2 448.2 0 1 0-896.4 0Z" fill="#F49C26" p-id="7448"></path><path d="M519.4 81.5c11.9 0 23.8 0.5 35.7 1.4 5.7 0.5 11.5 1 17.2 1.7 1.4 0.2 2.7 0.3 4.1 0.5 3.6 0.4-2.9-0.4 0.7 0.1 3.2 0.4 6.3 0.9 9.5 1.4 22.5 3.6 44.7 9 66.3 16 10.8 3.5 21.4 7.4 31.9 11.7 1.7 0.7 3.5 1.4 0.6 0.2 1.2 0.5 2.4 1 3.7 1.6 2.6 1.1 5.3 2.3 7.9 3.5 5.2 2.4 10.4 4.9 15.5 7.5 19.8 10 38.8 21.5 56.9 34.3 4.6 3.3 9.2 6.7 13.7 10.1-2.4-1.8-0.9-0.7 0.5 0.4 1 0.8 2.1 1.6 3.1 2.4l6.6 5.4c8.6 7.1 16.8 14.5 24.8 22.3 7.8 7.6 15.4 15.4 22.7 23.6 3.8 4.2 7.5 8.5 11.1 12.9 1.7 2 3.3 4 5 6.1 0.8 1 1.6 2 2.4 3.1l1.2 1.5c1.6 2-1.9-2.5-0.4-0.5 13.4 18 25.8 36.4 36.6 56.1 5.4 9.8 10.5 19.9 15.1 30.1 1.1 2.4 2.2 4.8 3.2 7.3 0.5 1.2 1.1 2.4 1.6 3.7-1.3-3.4-0.1-0.3 0.5 1.2 2.1 5.1 4.1 10.3 6 15.5 7.9 21.5 14.1 43.6 18.5 66 1.1 5.6 2.1 11.2 3 16.8l1.2 8.1c0.6 4.4-0.2-2 0.2 1.3l0.6 4.8c1.3 11.5 2.2 23 2.7 34.6 0.9 23.7 0 47.5-2.8 71.1-0.2 1.4-0.3 2.7-0.5 4.1-0.2 2.1 0.1-1.3 0.2-1.4-0.3 0.4-0.2 1.5-0.3 2-0.4 2.9-0.9 5.9-1.3 8.8-0.9 5.8-2 11.6-3.2 17.4-2.2 11-4.9 22-8 32.8-3.1 11-6.6 21.8-10.5 32.5-2 5.4-4.1 10.8-6.3 16.1-0.2 0.6-0.5 1.2-0.8 1.8 0-0.1 1.3-3.1 0.5-1.2-0.5 1.2-1 2.4-1.6 3.7-1.2 2.6-2.3 5.3-3.5 7.9-9.4 20.4-20.3 40-32.6 58.8-6 9.1-12.4 18-19 26.7 1.8-2.4 0.7-0.9-0.4 0.5-0.8 1-1.6 2.1-2.4 3.1-1.9 2.4-3.8 4.8-5.8 7.1-3.5 4.2-7.1 8.3-10.7 12.4-14.9 16.6-31 32-48.1 46.2-2 1.7-4.1 3.3-6.1 5-1 0.8-2.1 1.6-3.1 2.4l-1.5 1.2c1-0.8 2.3-1.7 0.5-0.4-4.4 3.3-8.7 6.5-13.2 9.7-9.1 6.4-18.5 12.6-28.1 18.3-9.6 5.8-19.4 11.2-29.5 16.2-4.9 2.5-9.9 4.9-14.9 7.2-2.4 1.1-4.8 2.2-7.3 3.2-0.5 0.2-5.1 2.2-2.7 1.2 2.2-0.9-2 0.8-2.8 1.1-20.9 8.5-42.4 15.4-64.4 20.7-11.2 2.7-22.6 4.9-34 6.7l-8.1 1.2c-3.6 0.5 2.9-0.4-0.7 0.1l-4.8 0.6c-6 0.7-11.9 1.3-17.9 1.7-23.5 1.8-47.1 1.7-70.6-0.2-6-0.5-11.9-1.1-17.9-1.8-0.5-0.1-3.9-0.8-4.1-0.5l1.4 0.2c-0.7-0.1-1.4-0.2-2-0.3-2.9-0.4-5.9-0.9-8.8-1.3-11.4-1.9-22.7-4.2-34-6.9-21.9-5.3-43.4-12.4-64.3-21-0.6-0.2-1.2-0.5-1.8-0.8 0.1 0 3.1 1.3 1.2 0.5-1.4-0.6-2.8-1.2-4.3-1.8-2.6-1.2-5.2-2.3-7.9-3.5-5-2.3-10-4.7-14.9-7.2-10-5.1-19.8-10.5-29.4-16.3-9.5-5.8-18.9-11.9-28-18.4-2.1-1.5-4.3-3.1-6.4-4.6-1.1-0.8-2.1-1.6-3.2-2.4-0.6-0.5-4.2-3.2-2.3-1.8 1.9 1.5-1.3-1-1.8-1.4-1-0.8-2.1-1.6-3.1-2.4l-6.6-5.4a456.43 456.43 0 0 1-47.9-46.4 14545858253559694 14545858253559694 0 0 0-16.1-19c-0.8-1-1.6-2.1-2.4-3.1-0.3-0.3-1.6-2.1-0.2-0.2 1.5 1.9-0.3-0.4-0.6-0.8-6.7-8.9-13.2-18-19.3-27.4-12.1-18.6-22.8-38.1-32-58.4-1.1-2.4-2.2-4.8-3.2-7.3-0.3-0.6-1.9-4.4-0.9-2.1 0.9 2.2-0.8-2-1.1-2.8-2.2-5.3-4.3-10.7-6.2-16.2-3.9-10.7-7.4-21.6-10.4-32.5-3-10.9-5.6-21.8-7.8-32.9-1.1-5.8-2.2-11.6-3.1-17.5l-1.2-8.1 0.2 1.4c0.1-0.1-0.2-1.9-0.3-2l-0.6-4.8c-2.7-23.6-3.5-47.4-2.5-71.2 0.5-11.6 1.4-23.1 2.8-34.6 0.1-0.9 0.7-5.5 0.4-3.1-0.3 2.5 0.2-1.7 0.3-2.4 0.4-2.9 0.9-5.9 1.4-8.8 0.9-5.6 1.9-11.2 3.1-16.8 4.6-22.4 10.9-44.5 18.8-65.9 1.9-5.2 4-10.4 6.1-15.5 1.3-3.2-1.1 2.6 0.2-0.6 0.5-1.2 1.1-2.4 1.6-3.7 1.2-2.8 2.5-5.7 3.8-8.5 4.6-10 9.6-19.8 15-29.4 5.4-9.8 11.3-19.3 17.4-28.7 3-4.6 6.1-9.1 9.3-13.5 1.7-2.3 3.3-4.6 5-6.9 0.8-1.1 1.6-2.1 2.4-3.1 1-1.3 3-3.9 0.8-1 13.6-17.3 28.3-33.8 44.2-49 8-7.7 16.4-15.1 24.9-22.2 2-1.7 4.1-3.3 6.1-4.9 1-0.8 2.1-1.6 3.1-2.4 0.3-0.3 2.1-1.6 0.2-0.2-2.1 1.6 0.9-0.7 1.3-1 4.4-3.3 8.8-6.5 13.2-9.7 18.1-12.7 37.2-24.1 57-34.1 5.1-2.6 10.3-5 15.5-7.4 2.4-1.1 4.8-2.2 7.3-3.2 1.7-0.7 3.4-1.6 0.6-0.3 1.4-0.7 2.9-1.2 4.3-1.8 10.5-4.3 21.2-8.1 32-11.6 21.9-7 44.4-12.3 67.1-15.8 2.1-0.3 6.4-0.1 8.1-1.2-0.1 0-3.5 0.4-1.4 0.2 0.7-0.1 1.4-0.2 2-0.3 1.4-0.2 2.7-0.3 4.1-0.5 5.5-0.6 11-1.2 16.5-1.6 12.4-0.6 24-1.1 35.7-1.1 9.4 0 18.4-8.3 18-18-0.4-9.7-7.9-18-18-18-48.6 0.1-97.4 7.5-143.7 22.6-44.6 14.5-87.2 35.7-125.5 63-38.8 27.7-72.8 60.6-101.8 98.4-28.6 37.2-51.1 78.8-67.3 122.8-16.7 45.4-25.8 93.6-27.7 141.9-1.9 48.8 4 98.2 17.3 145.2 12.8 45 32.5 88.3 58.2 127.4 25.5 38.8 56.7 74.1 92.6 103.7 37.1 30.6 78.2 55.2 122.8 73.4 44.6 18.3 92 29 140 32.7 48.7 3.8 98.2-0.4 145.6-11.9 45.8-11.1 90.2-29.5 130.5-53.9 39.7-24.1 76.1-54.2 106.9-88.9 31-34.9 57-74.3 76.2-116.9 20.2-44.7 33.1-91.7 38.8-140.4 5.7-48.9 3.3-98.7-6.5-147-9.4-46.4-26.3-91.5-49.3-132.8-22.6-40.6-51.6-78-85.2-110.1-33.7-32.1-72.2-59.5-113.9-80.2-42.5-21.1-88-36-134.9-43.2-24.3-3.7-48.7-5.8-73.3-5.8-9.4 0-18.4 8.3-18 18 0.6 9.8 8.1 18 18.2 18z" fill="#FFFFFF" p-id="7449"></path><path d="M732.4 466.1h30.4V344.4c0-16.8-13.6-30.4-30.4-30.4h-426c-16.8 0-30.4 13.6-30.4 30.4v121.7h30.4c16.8 0 30.4 13.6 30.4 30.4v30.4c0 16.8-13.6 30.4-30.4 30.4H276V679c0 16.8 13.6 30.4 30.4 30.4h426c16.8 0 30.4-13.6 30.4-30.4V557.4h-30.4c-16.8 0-30.4-13.6-30.4-30.4v-30.4c0-16.9 13.6-30.5 30.4-30.5z m-126.4 48v20.5h-74v99.2h-26.8v-99.2H428v-20.5h77.2v-7.9l-80.3-119.7 22.1-18.9 70.9 104h1.6l72.5-104 22.1 20.5L532 504.6v9.5h74z" fill="#FFFFFF" p-id="7450"></path></svg>