<?xml version="1.0" standalone="no"?><!DOCTYPE svg PUBLIC "-//W3C//DTD SVG 1.1//EN" "http://www.w3.org/Graphics/SVG/1.1/DTD/svg11.dtd"><svg class="icon" width="200px" height="200.00px" viewBox="0 0 1024 1024" version="1.1" xmlns="http://www.w3.org/2000/svg"><path d="M172 512c0 33.137 26.863 60 60 60s60-26.863 60-60c0-33.137-26.863-60-60-60-33.137 0-60 26.863-60 60z" /><path d="M452 512c0 33.137 26.863 60 60 60s60-26.863 60-60c0-33.137-26.863-60-60-60-33.137 0-60 26.863-60 60z" /><path d="M732 512c0 33.137 26.863 60 60 60s60-26.863 60-60c0-33.137-26.863-60-60-60-33.137 0-60 26.863-60 60z" /></svg>