<?xml version="1.0" standalone="no"?><!DOCTYPE svg PUBLIC "-//W3C//DTD SVG 1.1//EN" "http://www.w3.org/Graphics/SVG/1.1/DTD/svg11.dtd"><svg t="1493978426225" class="icon" style="" viewBox="0 0 1024 1024" version="1.1" xmlns="http://www.w3.org/2000/svg" p-id="3647" xmlns:xlink="http://www.w3.org/1999/xlink" width="200" height="200"><defs><style type="text/css"></style></defs><path d="M913.915789 141.871171c-13.821797-1.571798-121.394814-13.449313-214.443024-13.449313-80.630389 0-134.685515 16.854876-154.626683 27.131941-5.931083 2.708692-21.287839 10.330276-35.063587 22.239514-13.775748-11.909238-29.132504-19.529799-35.062564-22.239514-19.941168-10.277064-73.996295-27.131941-154.626683-27.131941-93.048209 0-200.621227 11.877515-214.443024 13.449313-38.872333 0.864694-70.229504 32.755008-70.229504 71.829955l0 581.699432c0 39.225373 31.595602 71.209832 70.674643 71.838142 0.314155 0.011256 0.63138 0.017396 0.950651 0.017396 1.193175 0 2.420119-0.076748 3.673669-0.236384 10.377348-1.324158 65.233724-8.144494 126.227889-12.385075 107.365286-7.462972 148.305721-1.104147 163.153894 3.348258 0.061398 0.01842 0.122797 0.032746 0.185218 0.050142 0.26913 0.077771 0.540306 0.152473 0.813528 0.222057 0.181125 0.047072 0.36225 0.091074 0.543376 0.134053 0.207731 0.048095 0.417509 0.094144 0.627287 0.137123 0.249687 0.052189 0.499373 0.100284 0.74906 0.144286 0.075725 0.013303 0.150426 0.030699 0.227174 0.044002 7.018857 1.169639 17.506722 4.626367 28.609595 8.287757 22.461571 7.40362 50.41625 16.619516 77.926814 16.619516 23.168676 0 48.756447-7.333012 73.501014-14.424524 17.388019-4.982478 35.367509-10.134825 45.202505-10.134825 3.206018 0 6.271844-0.595564 9.099239-1.672082 123.878378-17.413602 268.536013 9.147334 269.997294 9.420557l2.336208 0.437975 2.37714 0c39.617299 0 71.848375-32.231075 71.848375-71.848375L984.145293 213.70215C984.14427 174.626179 952.787098 142.735865 913.915789 141.871171zM413.33077 808.560276c-72.138994-20.561291-264.597307 2.078335-307.348993 7.483438-10.80816-0.666172-19.396769-9.670244-19.396769-20.643156L86.585007 213.70215c0-11.404748 9.278317-20.683065 20.683065-20.683065l1.480724 0 1.469468-0.170892c1.143033-0.13303 115.374704-13.260002 209.873961-13.260002 70.335928 0 116.656907 14.087856 131.47438 21.597901l0.474814 0.270153 0.967024 0.432859c13.944594 6.324032 29.185716 17.818831 31.191396 23.467481l0 599.936795c0 1.326205 0.101307 2.628874 0.295735 3.900843-12.317537-2.783393-24.924669-6.928806-36.620036-10.784624C435.508885 814.332746 423.809425 810.494325 413.33077 808.560276zM932.97896 795.400558c0 10.780531-8.292873 19.661805-18.832927 20.6012-22.468734-3.988848-164.102499-27.434839-289.4923-8.433066-0.980327 0.148379-1.936095 0.356111-2.871397 0.608867-15.594163 1.234107-33.635051 6.401804-52.594869 11.835559-11.090593 3.177366-22.981411 6.579859-34.098609 9.024537 0.179079-1.222851 0.275269-2.472308 0.275269-3.744277L535.364127 225.356584c2.006703-5.64865 17.246803-17.142425 31.137161-23.442922l0.613984-0.2415 0.864694-0.476861c14.800078-7.509021 61.131289-21.60711 131.4928-21.60711 94.501304 0 208.731952 13.127995 209.873961 13.260002l1.471514 0.170892 1.478677 0c11.404748 0 20.683065 9.278317 20.683065 20.683065L932.979984 795.400558z" p-id="3648"></path><path d="M147.543358 416.232866c27.567869-6.882757 78.869279-19.690458 165.621085-19.703761 45.88812 0.541329 74.668607 7.16826 106.141412 24.432459 3.903913 2.14178 8.121981 3.157923 12.280698 3.157923 9.03784 0 17.799388-4.800329 22.452361-13.283538 6.794753-12.387122 2.261507-27.938306-10.125615-34.734082-39.179324-21.491477-75.715449-30.109762-130.312928-30.737048l-0.293689-0.001023c-93.128027 0-148.44182 13.809517-178.157609 21.228487-13.70821 3.421936-22.046109 17.309224-18.624173 31.017434C119.947859 411.316903 133.834124 419.657872 147.543358 416.232866z" p-id="3649"></path><path d="M445.137173 585.218582c-2.833535-1.269923-70.109778-31.101345-131.829468-31.101345-91.033319 0-125.567857 9.402137-158.964478 18.494213-5.15951 1.403976-10.031471 2.731204-15.173584 4.040013-13.690814 3.488451-21.963221 17.415648-18.47477 31.106462 3.487428 13.691837 17.413602 21.965268 31.106462 18.475793 5.54632-1.413186 10.851139-2.858094 15.981996-4.253884 31.540344-8.587586 61.331857-16.697287 145.524374-16.697287 50.633191 0 110.327758 26.369577 110.905926 26.627451 3.3984 1.521656 6.950296 2.243087 10.446933 2.242064 9.772574 0 19.105127-5.631254 23.360034-15.126512C463.799208 606.131891 458.030831 590.995145 445.137173 585.218582z" p-id="3650"></path><path d="M881.733832 360.602871c-69.244061-13.772678-119.580492-22.49841-184.523597-18.271132-70.992891 0.212848-119.901811 26.582425-121.956609 27.709085-12.388145 6.792707-16.925485 22.342868-10.131755 34.732036 4.652973 8.486278 13.413498 13.287631 22.454408 13.287631 4.15667 0 8.374738-1.016143 12.276604-3.155876 0.390903-0.213871 40.653909-21.408589 98.216929-21.408589l0.851391 0 0.850367-0.056282c59.066257-3.941775 106.445334 4.310166 171.97991 17.346063 13.857613 2.758834 27.325345-6.242168 30.081109-20.100804C904.5904 376.827391 895.591445 363.359658 881.733832 360.602871z" p-id="3651"></path></svg>