<?xml version="1.0" standalone="no"?><!DOCTYPE svg PUBLIC "-//W3C//DTD SVG 1.1//EN" "http://www.w3.org/Graphics/SVG/1.1/DTD/svg11.dtd"><svg class="icon" width="200px" height="199.22px" viewBox="0 0 1028 1024" version="1.1" xmlns="http://www.w3.org/2000/svg"><path d="M855.616 128 1011.424 128C1020.256 128 1027.424 120.832 1027.424 112S1020.256 96 1011.424 96l-192 0C810.592 96 803.424 103.168 803.424 112l0 192c0 8.832 7.168 16 16 16S835.424 312.832 835.424 304L835.424 153.056l19.552 19.552c90.656 90.656 140.608 211.2 140.608 339.392s-49.952 248.736-140.608 339.392c-134.56 134.592-336.128 177.024-513.632 108-8.224-3.264-17.504 0.864-20.704 9.088-3.2 8.256 0.864 17.536 9.12 20.704 60.288 23.424 123.136 34.816 185.504 34.816 133.44 0 264.512-52.16 362.336-150.016 96.704-96.672 149.984-225.28 149.984-362.016S974.304 246.656 877.6 149.984L855.616 128z"  /><path d="M211.424 704C202.592 704 195.424 711.168 195.424 720l0 154.88-22.816-22.816c-90.656-90.656-140.608-211.2-140.608-339.392S81.952 263.904 172.608 173.248c132.32-132.352 331.232-175.84 506.752-110.592 8.192 3.072 17.472-1.12 20.576-9.44 3.072-8.288-1.152-17.504-9.44-20.576C503.328-36.864 291.136 9.44 149.984 150.624c-96.704 96.672-149.984 225.28-149.984 362.016s53.28 265.344 149.984 362.016L171.296 896 19.424 896C10.592 896 3.424 903.168 3.424 912S10.592 928 19.424 928l187.392 0c1.28 0.32 12.032-0.8 15.168-3.936 0.128-0.128 0.16-0.288 0.288-0.416C225.408 920.704 227.424 916.64 227.424 912l0-192C227.424 711.168 220.256 704 211.424 704z"  /></svg>