<?xml version="1.0" standalone="no"?><!DOCTYPE svg PUBLIC "-//W3C//DTD SVG 1.1//EN" "http://www.w3.org/Graphics/SVG/1.1/DTD/svg11.dtd"><svg t="1493952917838" class="icon" style="" viewBox="0 0 1024 1024" version="1.1" xmlns="http://www.w3.org/2000/svg" p-id="2375" xmlns:xlink="http://www.w3.org/1999/xlink" width="200" height="200"><defs><style type="text/css"></style></defs><path d="M716.8 870.4H204.8V153.6h512v153.6h51.2V153.6c0-30.72-20.48-51.2-51.2-51.2H204.8c-25.6 0-51.2 20.48-51.2 51.2v716.8c0 30.72 20.48 51.2 51.2 51.2h512c25.6 0 51.2-20.48 51.2-51.2v-153.6h-51.2v153.6z" p-id="2376"></path><path d="M870.4 501.76c0-5.12-5.12-5.12-5.12-10.24l-107.52-107.52c-10.24-10.24-25.6-10.24-35.84 0-10.24 10.24-10.24 25.6 0 35.84l66.56 66.56H384c-15.36 0-25.6 10.24-25.6 25.6s10.24 25.6 25.6 25.6h399.36L716.8 599.04c-10.24 10.24-10.24 25.6 0 35.84 10.24 10.24 25.6 10.24 35.84 0l107.52-107.52c10.24-5.12 10.24-15.36 10.24-25.6z" p-id="2377"></path></svg>