<?xml version="1.0" standalone="no"?><!DOCTYPE svg PUBLIC "-//W3C//DTD SVG 1.1//EN" "http://www.w3.org/Graphics/SVG/1.1/DTD/svg11.dtd"><svg t="1494135131320" class="icon" style="" viewBox="0 0 1024 1024" version="1.1" xmlns="http://www.w3.org/2000/svg" p-id="3075" xmlns:xlink="http://www.w3.org/1999/xlink" width="200" height="200"><defs><style type="text/css"></style></defs><path d="M779.007705 118.191866 269.597693 118.191866c-65.779146 0-119.085212 58.322313-119.085212 124.769678l0 329.954851c0 66.447365 52.062749 110.914112 117.841895 110.914112l47.136553 0 0 141.40966 164.978449-141.40966 306.388109 0c65.75561 0 117.839849-44.466748 117.839849-110.914112l0-329.954851C904.696312 176.514179 844.763314 118.191866 779.007705 118.191866zM857.560782 572.916395c0 44.053332-35.513842 63.777559-70.704318 63.777559l-306.388109 0-17.446347 0-13.235442 11.346419-87.161129 74.709539 0-38.919405 0-47.136553-47.136553 0-47.136553 0c-35.192523 0-70.706365-19.724227-70.706365-63.777559l0-329.954851c0-41.35999 33.626865-77.633125 71.949682-77.633125l509.411035 0c40.368406 0 78.553077 37.72316 78.553077 77.633125L857.559758 572.916395z" p-id="3076"></path><path d="M339.057671 401.011186m-47.136553 0a46.063 46.063 0 1 0 94.273107 0 46.063 46.063 0 1 0-94.273107 0Z" p-id="3077"></path><path d="M527.603885 401.011186m-47.136553 0a46.063 46.063 0 1 0 94.273107 0 46.063 46.063 0 1 0-94.273107 0Z" p-id="3078"></path><path d="M716.150098 401.011186m-47.136553 0a46.063 46.063 0 1 0 94.273107 0 46.063 46.063 0 1 0-94.273107 0Z" p-id="3079"></path></svg>