<?xml version="1.0" standalone="no"?><!DOCTYPE svg PUBLIC "-//W3C//DTD SVG 1.1//EN" "http://www.w3.org/Graphics/SVG/1.1/DTD/svg11.dtd"><svg t="1494469539378" class="icon" style="" viewBox="0 0 1024 1024" version="1.1" xmlns="http://www.w3.org/2000/svg" p-id="4111" xmlns:xlink="http://www.w3.org/1999/xlink" width="200" height="200"><defs><style type="text/css"></style></defs><path d="M883.776 67.968l-88.448 0L795.328 138.88c0 26.944-24.96 48.896-55.744 48.896-30.72 0-55.744-21.952-55.744-48.896L683.84 67.968 340.16 67.968 340.16 138.88c0 26.944-25.024 48.896-55.744 48.896-30.72 0-55.744-21.952-55.744-48.896L228.672 67.968 140.224 67.968C80.576 67.968 32 110.592 32 162.944l0 766.144C32 981.376 80.576 1024 140.224 1024l743.552 0c59.712 0 108.224-42.624 108.224-94.976L992 162.944C992 110.592 943.424 67.968 883.776 67.968L883.776 67.968 883.776 67.968zM921.536 914.56c0 16.896-16.96 30.656-37.76 30.656L140.224 945.216c-20.864 0-37.76-13.76-37.76-30.656L102.464 336.768l819.072 0L921.536 914.56zM285.376 169.088c14.72 0 26.624-9.152 26.624-20.48L312 20.48C312 9.152 300.096 0 285.376 0c-14.72 0-26.688 9.152-26.688 20.48l0 128.192C258.688 159.936 270.592 169.088 285.376 169.088L285.376 169.088zM738.624 169.088c14.72 0 26.688-9.152 26.688-20.48L765.312 20.48c0-11.328-11.968-20.48-26.688-20.48-14.72 0-26.624 9.152-26.624 20.48l0 128.192C712 159.936 723.904 169.088 738.624 169.088zM757.568 510.272l-261.696 301.696c-13.952 16.064-36.544 16.064-50.496 0L298.432 642.56c-13.952-16.064-13.952-42.112 0-58.24 13.952-16.064 36.544-16.064 50.496 0l121.664 140.224 236.416-272.576c13.952-16.064 36.544-16.064 50.496 0C771.456 468.096 771.456 494.144 757.568 510.272L757.568 510.272z" p-id="4112" fill="#e59b1a"></path></svg>