<?xml version="1.0" standalone="no"?><!DOCTYPE svg PUBLIC "-//W3C//DTD SVG 1.1//EN" "http://www.w3.org/Graphics/SVG/1.1/DTD/svg11.dtd"><svg class="icon" width="200px" height="200.00px" viewBox="0 0 1024 1024" version="1.1" xmlns="http://www.w3.org/2000/svg"><path d="M985.315 536.273h-268.431c-12.087 109.227-104.591 194.18-217.021 194.18s-204.933-84.954-217.021-194.18h-244.158c-13.423 0-24.273-10.85-24.273-24.273s10.85-24.273 24.273-24.273h244.158c12.087-109.202 104.591-194.18 217.021-194.18s204.933 84.978 217.021 194.18h268.431c13.423 0 24.273 10.85 24.273 24.273s-10.85 24.273-24.273 24.273zM499.863 342.092c-93.838 0-169.908 76.070-169.908 169.908s76.070 169.908 169.908 169.908 169.908-76.070 169.908-169.908-76.070-169.908-169.908-169.908z" /></svg>