<?xml version="1.0" standalone="no"?><!DOCTYPE svg PUBLIC "-//W3C//DTD SVG 1.1//EN" "http://www.w3.org/Graphics/SVG/1.1/DTD/svg11.dtd"><svg t="1495434752069" class="icon" style="" viewBox="0 0 1024 1024" version="1.1" xmlns="http://www.w3.org/2000/svg" p-id="2700" xmlns:xlink="http://www.w3.org/1999/xlink" width="200" height="200"><defs><style type="text/css"></style></defs><path d="M571.703 839.469c69.417-11.796 131.385-44.87 179.284-94.117 6.356-6.496 12.394-13.202 18.139-20.068 2.323-2.818 4.478-5.819 6.736-8.732 4.297-5.621 8.599-11.271 12.474-17.046 2.425-3.574 4.573-7.275 6.815-10.886 3.604-5.855 7.187-11.702 10.428-17.725 1.522-2.919 2.898-5.899 4.339-8.847 3.525-7.143 6.961-14.331 9.947-21.699 0.699-1.638 1.26-3.328 1.908-5.024 3.343-8.717 6.502-17.52 9.087-26.448 0.131-0.437 0.249-0.795 0.379-1.216 8.687-30.416 12.998-61.859 12.831-93.395 0-0.489-0.044-1.035-0.066-1.581-0.087-9.815-0.612-19.631-1.587-29.461-0.219-2.068-0.561-4.202-0.807-6.32-8.513-72.345-40.435-142.752-96.098-198.429l-54.14 54.14c-1.39 1.398-3.488 2.002-5.519 1.398-2.032-0.612-3.459-2.272-3.859-4.209l-47.201-229.201c-0.357-1.777 0.153-3.684 1.522-5.054 1.369-1.369 3.292-1.878 5.054-1.515l229.209 47.193c1.936 0.4 3.598 1.821 4.194 3.853 0.619 2.032 0.006 4.129-1.39 5.534l-54.147 54.147c65.434 65.434 105.943 146.24 121.868 230.628 0.285 1.122 0.721 2.155 0.954 3.321 1.595 8.681 2.388 17.345 3.437 26.003 0.415 3.247 0.983 6.459 1.311 9.735 1.281 12.489 1.791 24.911 1.987 37.341 0.058 1.216 0.131 2.373 0.124 3.517 0.276 41.367-5.404 82.131-16.645 121.439-0.255 1.056-0.495 2.105-0.844 3.189-3.321 11.244-7.231 22.297-11.411 33.27-1.071 2.701-1.987 5.468-3.109 8.207-3.765 9.204-8.039 18.241-12.481 27.234-2.082 4.267-4.114 8.527-6.335 12.75-4.099 7.61-8.629 15.081-13.223 22.595-3.058 4.951-6.007 9.939-9.314 14.812-1.347 2.046-2.425 4.187-3.823 6.102-4.667 6.721-9.83 13.027-14.841 19.436-1.806 2.293-3.488 4.682-5.309 6.954-9.233 11.28-18.772 22.166-28.975 32.368-62.448 62.442-142.708 104.035-232.041 119.232-28.494 4.806-55.793-14.374-61.021-42.926-5.25-28.603 13.668-55.691 42.161-60.497M204.818 819.152v0l-54.111 54.125c-1.398 1.39-2.010 3.502-1.398 5.527 0.604 2.025 2.265 3.459 4.202 3.844l229.179 47.207c1.762 0.364 3.677-0.146 5.054-1.515 1.369-1.369 1.872-3.277 1.5-5.046l-47.156-229.223c-0.407-1.945-1.827-3.589-3.853-4.194-2.025-0.612-4.121-0.006-5.527 1.383l-54.162 54.162c-56.754-56.804-88.969-128.866-96.666-202.754-0.030-0.306-0.116-0.685-0.131-0.99-5.309-52.341 1.791-105.499 21.183-154.817 0.327-0.801 0.626-1.696 0.961-2.542 3.313-8.148 7.049-16.099 11.010-24 1.099-2.185 2.118-4.39 3.233-6.569 3.604-6.787 7.616-13.405 11.724-19.946 1.785-2.869 3.532-5.855 5.461-8.723 4.348-6.502 9.029-12.801 13.902-19.042 1.813-2.331 3.553-4.697 5.395-7.012 6.116-7.391 12.591-14.563 19.486-21.554 47.798-48.678 109.307-81.243 178.214-92.981 28.501-4.813 47.426-31.931 42.191-60.49-5.213-28.566-32.549-47.775-61.051-42.896-89.223 15.175-169.083 56.9-231.503 119.232-0.285 0.249-0.612 0.415-0.881 0.685-1.471 1.478-2.665 3.138-4.15 4.618-7.943 8.243-15.722 16.675-23.126 25.602-3.052 3.75-5.804 7.558-8.753 11.374-4.217 5.498-8.708 10.74-12.721 16.428-1.456 2.105-2.614 4.348-4.063 6.487-2.906 4.354-5.585 8.869-8.331 13.305-4.981 8.017-9.837 16.042-14.251 24.351-1.893 3.488-3.502 7.034-5.258 10.537-4.82 9.75-9.473 19.617-13.602 29.644-0.699 1.777-1.311 3.574-1.987 5.338-25.013 63.7-34.581 132.404-27.459 201.881 0.124 1.245 0.357 2.476 0.525 3.699 1.114 10.31 2.199 20.644 4.093 30.991 0.234 1.369 0.757 2.571 1.122 3.91 15.998 84.134 56.507 164.699 121.708 229.966v0zM204.818 819.152z" fill="#666666" p-id="2701"></path></svg>