<?xml version="1.0" standalone="no"?><!DOCTYPE svg PUBLIC "-//W3C//DTD SVG 1.1//EN" "http://www.w3.org/Graphics/SVG/1.1/DTD/svg11.dtd"><svg class="icon" width="200px" height="200.00px" viewBox="0 0 1024 1024" version="1.1" xmlns="http://www.w3.org/2000/svg"><path d="M512 1022.511628c281.945302 0 510.511628-228.566326 510.511628-510.511628S793.945302 1.488372 512 1.488372 1.488372 230.054698 1.488372 512 230.054698 1022.511628 512 1022.511628L512 1022.511628zM512 1013.581395c-277.015814 0-501.581395-224.565581-501.581395-501.581395S234.984186 10.418605 512 10.418605 1013.581395 234.984186 1013.581395 512 789.015814 1013.581395 512 1013.581395L512 1013.581395z"  /><path d="M784.372093 712.930233 437.956465 712.930233l-0.220279-4.238884c-0.369116-7.108465-6.239256-12.686884-13.377488-12.686884-7.132279 0-13.008372 5.578419-13.377488 12.686884l-0.220279 4.238884L239.627907 712.930233l0-354.232558 171.627163 0-0.285767 5.399814c0 7.388279 6.00707 13.395349 13.395349 13.395349s13.395349-6.00707 13.395349-13.395349l-0.279814-5.399814 346.89786 0L784.378047 712.930233zM446.035349 704l329.406512 0 0-336.372093L446.410419 367.627907c-1.696744 10.638884-10.936558 18.795163-22.045767 18.795163s-20.349023-8.156279-22.045767-18.795163L248.55814 367.627907l0 336.372093 154.135814 0c2.417116-9.769674 11.234233-16.925767 21.670698-16.925767S443.618233 694.230326 446.035349 704z"  /><path d="M108.365395 408.933209c-0.327442 0-0.666791-0.035721-1.000186-0.113116-2.405209-0.547721-3.905488-2.946977-3.351814-5.346233 26.284651-114.759442 134.334512-246.867349 231.227535-282.719256 2.315907-0.863256 4.88186 0.327442 5.739163 2.637395 0.857302 2.315907-0.327442 4.88186-2.637395 5.739163-94.48186 34.95293-199.912186 164.084093-225.619349 276.337116C112.241116 407.53414 110.401488 408.933209 108.365395 408.933209z"  /><path d="M375.069767 107.162791m-5.953488 0a1 1 0 1 0 11.906977 0 1 1 0 1 0-11.906977 0Z"  /><path d="M416.744186 401.610419l0 16.866233L416.744186 422.697674l8.930233 0 0-4.21507 0-16.866233L425.674419 397.395349 416.744186 397.395349 416.744186 401.610419 416.744186 401.610419 416.744186 401.610419zM416.744186 452.21507l0 16.866233L416.744186 473.302326l8.930233 0 0-4.21507 0-16.866233L425.674419 448 416.744186 448 416.744186 452.21507 416.744186 452.21507 416.744186 452.21507zM416.744186 502.819721l0 16.866233L416.744186 523.906977l8.930233 0 0-4.21507 0-16.866233L425.674419 498.604651 416.744186 498.604651 416.744186 502.819721 416.744186 502.819721 416.744186 502.819721zM416.744186 553.424372l0 16.866233L416.744186 574.511628l8.930233 0 0-4.21507 0-16.866233L425.674419 549.209302 416.744186 549.209302 416.744186 553.424372 416.744186 553.424372 416.744186 553.424372zM416.744186 604.029023l0 16.866233L416.744186 625.116279l8.930233 0 0-4.21507 0-16.866233 0-4.21507L416.744186 599.819907 416.744186 604.029023 416.744186 604.029023 416.744186 604.029023zM416.744186 654.633674l0 16.866233 0 4.21507 8.930233 0 0-4.21507 0-16.866233 0-4.21507L416.744186 650.418605 416.744186 654.633674 416.744186 654.633674 416.744186 654.633674z"  /></svg>